<?xml version="1.0" encoding="UTF-8"?>
<svg width="90px" height="90px" viewBox="0 0 90 90" version="1.1" xmlns="http://www.w3.org/2000/svg" xmlns:xlink="http://www.w3.org/1999/xlink">
    <!-- Generator: Sketch 48.2 (47327) - http://www.bohemiancoding.com/sketch -->
    <title>Angels &amp; Demons</title>
    <desc>Created with Sketch.</desc>
    <defs></defs>
    <g id="Categories" stroke="none" stroke-width="1" fill="none" fill-rule="evenodd">
        <g id="Angels-&amp;-Demons" fill-rule="nonzero">
            <g id="d-a" transform="translate(-7.000000, -7.000000)">
                <rect id="_Rectangle_2" fill="#C54A8F" transform="translate(51.823163, 51.862768) rotate(-45.000000) translate(-51.823163, -51.862768) " x="15.7731633" y="15.7877679" width="72.1" height="72.15" rx="14.85"></rect>
                <g id="_Group_3" transform="translate(17.826923, 12.883929)" fill="#FFFFFF">
                    <path d="M34.6634615,97.333125 L33.3264423,97.333125 C32.2324937,97.333125 31.3456731,96.4456894 31.3456731,95.3509821 L31.3456731,43.8945536 C30.8306731,42.9034821 29.1965385,42.4674107 26.78,41.8033929 L25.6410577,41.5159821 C23.3900449,41.1759604 21.3570938,39.9794864 19.9661538,38.1760714 C17.4505769,35.2028571 18.4805769,30.2475 19.6591346,26.3426786 C20.5504808,23.3694643 21.6399038,19.2664286 22.0954808,17.6113393 C21.4250235,17.6453666 20.7605537,17.7550801 20.1147115,17.9383929 C19.80406,18.0263536 19.4722027,17.9034377 19.2936409,17.6342783 C19.1150791,17.3651189 19.1307073,17.0113594 19.3323077,16.7590179 C21.8577885,13.528125 23.7296154,6.84830357 23.7395192,6.77892857 C23.8366932,6.43791626 24.1584005,6.21091406 24.5120192,6.23383929 C24.8669958,6.25987342 25.1536253,6.53423084 25.1953846,6.88794643 C25.1953846,7.11589286 25.9381731,12.7055357 25.9381731,15.2823214 C25.8697987,16.97123 25.6443373,18.6500915 25.2647115,20.2971429 C24.9675962,21.8035714 24.6110577,23.6866071 24.2743269,26.0750893 C23.5513462,31.3674107 23.9475,33.5874107 25.8490385,34.8559821 C26.6809615,35.4109821 28.4735577,35.7875893 30.9198077,35.9263393 L31.9101923,11.655 L30.0482692,12.6460714 C29.7460659,12.8199375 29.3629156,12.7532564 29.1371154,12.4875 C28.9237883,12.2173502 28.9237883,11.8359534 29.1371154,11.5658036 C30.8304511,9.07110745 32.0957264,6.31102845 32.8807692,3.399375 L33.3066346,1.12982143 C33.3654006,0.771781261 33.6769649,0.510559882 34.0395192,0.515357143 C34.3983334,0.515456834 34.7043139,0.775510918 34.7625,1.12982143 L35.1982692,3.44892857 C35.9841769,6.34312371 37.2460024,9.08623176 38.9320192,11.5658036 C39.1714251,11.8506669 39.1633667,12.2688117 38.9131633,12.5442263 C38.6629599,12.8196409 38.2477614,12.8674016 37.9416346,12.6559821 L36.0797115,11.6649107 L37.0700962,35.93625 C39.5163462,35.7975 41.2990385,35.4208929 42.1408654,34.8658929 C44.0424038,33.5973214 44.4385577,31.3872321 43.7155769,26.085 C43.38875,23.7064286 43.0322115,21.8233929 42.7251923,20.3070536 C42.3455666,18.6600022 42.1201052,16.9811407 42.0517308,15.2922321 C42.0517308,12.7154464 42.7747115,7.13571429 42.8044231,6.89785714 C42.8460422,6.50836615 43.1861819,6.22035605 43.5769231,6.24375 C43.9314992,6.20931528 44.2570724,6.44202886 44.3395192,6.78883929 C44.3395192,6.84830357 46.2311538,13.5380357 48.7467308,16.7689286 C48.9290911,17.0310053 48.9290911,17.3789947 48.7467308,17.6410714 C48.5661611,17.9080922 48.2341574,18.0281768 47.9247115,17.9383929 C47.2786689,17.7559787 46.6143009,17.6462819 45.9439423,17.6113393 C46.3896154,19.2763393 47.4889423,23.3496429 48.3802885,26.3426786 C49.5489423,30.3069643 50.5789423,35.2623214 48.0633654,38.2355357 C46.6652394,40.0290315 44.6352069,41.2202426 42.3884615,41.5655357 C42.0319231,41.6547321 41.6555769,41.7439286 41.2594231,41.8628571 C38.8329808,42.5169643 37.1988462,42.9629464 36.6838462,43.9441071 L36.6838462,95.3410714 C36.6866231,95.8754262 36.4736817,96.3882674 36.093306,96.7633092 C35.7129303,97.138351 35.1973463,97.3438195 34.6634615,97.333125 Z M22.0756731,16.1247321 C22.5479508,16.0958371 23.0186603,16.2024218 23.4325,16.4319643 C23.7014269,16.6065201 23.825791,16.9357115 23.7395192,17.2446429 C23.7395192,17.3041071 22.2440385,22.9135714 21.0951923,26.7589286 C20.1048077,30.0691071 19.0351923,34.756875 21.0951923,37.2246429 C22.2885978,38.7799163 24.046436,39.8018787 25.9876923,40.0690179 L27.1563462,40.3663393 C29.99875,41.1492857 32.0488462,41.7042857 32.7619231,43.4485714 C32.8014182,43.5392196 32.8216539,43.6370932 32.8213462,43.7359821 L32.8213462,95.3410714 C32.8186848,95.4742043 32.8696794,95.6028069 32.962836,95.6978925 C33.0559926,95.7929782 33.1834712,95.8465445 33.3165385,95.8465179 L34.6634615,95.8465179 C34.7974214,95.8465179 34.9258946,95.7932656 35.0206185,95.698476 C35.1153424,95.6036864 35.1685577,95.4751242 35.1685577,95.3410714 L35.1685577,43.7359821 C35.16825,43.6370932 35.1884856,43.5392196 35.2279808,43.4485714 C35.9410577,41.7042857 37.9911538,41.1492857 40.8335577,40.37625 L42.0022115,40.0690179 C43.9634998,39.8126496 45.7437347,38.7900862 46.9541346,37.2246429 C49.0240385,34.7667857 47.9445192,30.0790179 46.9541346,26.7688393 C45.8151923,22.9234821 44.3296154,17.3041071 44.3098077,17.2446429 C44.228302,16.9387911 44.3520895,16.6151221 44.6168269,16.441875 C45.2285333,16.1336312 45.9248172,16.0360839 46.5975962,16.164375 C45.5644291,14.3475114 44.6992026,12.440039 44.0126923,10.4657143 C43.8344231,12.1505357 43.6660577,14.0930357 43.6660577,15.2823214 C43.7367226,16.8782909 43.9555494,18.4642262 44.3197115,20.0196429 C44.6069231,21.5458929 44.9733654,23.4586607 45.3100962,25.876875 C45.9934615,30.9511607 45.8548077,34.2514286 43.0817308,36.0948214 C41.9031731,36.8777679 39.6847115,37.3336607 36.5055769,37.4426786 C36.3088015,37.4562596 36.115024,37.3887991 35.9691607,37.255934 C35.8232974,37.1230689 35.7380134,36.9363357 35.7330769,36.7390179 L34.5347115,10.3963393 C34.5283975,10.1276104 34.6638325,9.87537611 34.89125,9.73232143 C35.1210695,9.59954303 35.4042189,9.59954303 35.6340385,9.73232143 L36.2084615,10.0494643 C35.3004845,8.38979189 34.5606183,6.64342654 33.9999038,4.83642857 C33.4397278,6.64209061 32.7032924,8.38818808 31.80125,10.0494643 L32.3657692,9.73232143 C32.6009254,9.60323949 32.8873577,9.61104421 33.1151459,9.75274048 C33.3429341,9.89443675 33.4766947,10.1480141 33.4650962,10.4161607 L32.3459615,36.7291071 C32.3464396,36.9272651 32.2645534,37.1166986 32.1199139,37.2520397 C31.9752744,37.3873808 31.7809085,37.4564402 31.5833654,37.4426786 C28.3943269,37.3336607 26.1758654,36.8777679 24.9973077,36.0849107 C22.2341346,34.2415179 22.0855769,30.94125 22.7788462,25.876875 C23.1155769,23.44875 23.4820192,21.5458929 23.7692308,20.0097321 C24.1298441,18.4573144 24.345356,16.874692 24.4129808,15.2823214 C24.4129808,14.083125 24.2446154,12.1505357 24.07625,10.4558036 C23.3874126,12.4291961 22.5222799,14.3364615 21.4913462,16.1544643 C21.6854676,16.1343273 21.8805117,16.1244029 22.0756731,16.1247321 Z" id="_Compound_Path_"></path>
                    <g id="_Group_4" transform="translate(0.000000, 40.633929)">
                        <path d="M52.7379808,22.1900893 C50.7472932,22.1637412 48.7612089,21.9914945 46.7956731,21.6747321 C44.1276891,21.2883835 41.4101718,21.4230073 38.7933654,22.0711607 C38.562376,22.1481105 38.3084588,22.1085095 38.1118253,21.9648675 C37.9151919,21.8212256 37.8001275,21.5912832 37.8029808,21.3476786 C37.8029808,14.01375 44.6564423,9.98008929 47.5978846,8.59258929 C48.7863462,8.02767857 50.3115385,7.41321429 52.0645192,6.68973214 C55.7883654,5.17339286 60.4332692,3.28044643 63.5430769,1.19919643 C65.9992308,-0.436071429 67.0688462,0.495535714 67.4154808,0.981160714 C68.5841346,2.59660714 67.0886538,6.55098214 63.1865385,10.0395536 C63.776168,10.2794729 64.2146583,10.7883269 64.3650962,11.4072321 C64.5433654,12.4478571 63.9392308,14.01375 57.8582692,16.9869643 C58.6253343,17.9014014 58.8444979,19.1567942 58.4326923,20.2773214 C57.7097115,21.5558036 55.8477885,22.1900893 52.7379808,22.1900893 Z M43.8839423,19.9700893 C44.944374,19.9719648 46.0033734,20.0481332 47.0531731,20.1980357 C55.1545192,21.4170536 56.7688462,20.1980357 57.0758654,19.5835714 C57.4918269,18.8204464 56.5311538,17.5221429 56.2439423,17.2149107 C56.0844994,17.0413355 56.0181676,16.801638 56.0656731,16.5707143 C56.1131037,16.3394583 56.2674922,16.1444996 56.4816346,16.0454464 C63.1073077,12.90375 62.9785577,11.6748214 62.9785577,11.655 C62.9785577,11.6351786 62.2753846,11.1891964 61.6217308,11.1198214 C61.3229384,11.0876621 61.0729489,10.8785081 60.9883882,10.5899348 C60.9038276,10.3013614 61.0013586,9.9902323 61.2354808,9.80169643 C65.7219231,6.29330357 66.82125,2.59660714 66.2864423,1.873125 C66.1675962,1.70464286 65.5634615,1.71455357 64.4542308,2.45785714 C61.2057692,4.61839286 56.5311538,6.54107143 52.7082692,8.08714286 C50.9651923,8.80071429 49.4697115,9.41517857 48.3109615,9.96026786 C45.7557692,11.1594643 39.9818269,14.5291071 39.3975,20.4259821 C40.8748199,20.1297918 42.3772798,19.9771184 43.8839423,19.9700893 Z" id="_Compound_Path_2"></path>
                        <path d="M15.2519231,22.1900893 C12.1421154,22.1900893 10.3,21.5558036 9.60673077,20.2773214 C9.15785871,19.1781536 9.33170081,17.922597 10.0623077,16.9869643 C3.98134615,14.01375 3.37721154,12.4478571 3.54557692,11.4072321 C3.69805131,10.7861772 4.14059887,10.2768946 4.73403846,10.0395536 C0.822019231,6.55098214 -0.663557692,2.59660714 0.505096154,0.981160714 C0.851730769,0.495535714 1.92134615,-0.436071429 4.36759615,1.19919643 C7.48730769,3.28044643 12.1223077,5.16348214 15.8560577,6.68973214 C17.6090385,7.41321429 19.1243269,8.02767857 20.3127885,8.59258929 C23.2839423,9.98008929 30.1076923,14.01375 30.1076923,21.3476786 C30.1092773,21.5820104 29.9988634,21.8029912 29.8105769,21.9423214 C29.628972,22.0859055 29.3896486,22.1338034 29.1668269,22.0711607 C26.5499109,21.4237531 23.8325386,21.2891364 21.1645192,21.6747321 C19.2087809,21.990017 17.232682,22.1622589 15.2519231,22.1900893 Z M1.98076923,1.76410714 C1.84211538,1.76410714 1.75298077,1.79383929 1.71336538,1.85330357 C1.17855769,2.59660714 2.28778846,6.29330357 6.76432692,9.781875 C7.0024611,9.96533843 7.10453203,10.2756921 7.02182692,10.5648214 C6.94142569,10.8571883 6.68950852,11.0698908 6.38798077,11.1 C5.71451923,11.1792857 5.05096154,11.4666964 5.02125,11.6351786 C4.99153846,11.8036607 4.8925,12.8839286 11.5280769,16.025625 C11.739326,16.1273614 11.89018,16.3229263 11.9350319,16.5531955 C11.9798838,16.7834647 11.9134686,17.0214081 11.7558654,17.1950893 C11.4191346,17.5716964 10.5277885,18.8204464 10.9239423,19.56375 C11.2408654,20.1583929 12.8452885,21.3972321 20.9565385,20.1782143 C23.4957066,19.8226122 26.076344,19.8929507 28.5924038,20.3863393 C28.0179808,14.4399107 22.2440385,11.1297321 19.6789423,9.920625 C18.5300962,9.37553571 17.0247115,8.76107143 15.2915385,8.0475 C11.4983654,6.50142857 6.78413462,4.57875 3.54557692,2.41821429 C3.09303547,2.06198329 2.55206457,1.83585139 1.98076923,1.76410714 Z" id="_Compound_Path_3"></path>
                    </g>
                </g>
            </g>
        </g>
    </g>
</svg>