<?xml version="1.0" encoding="UTF-8"?>
<svg width="90px" height="90px" viewBox="0 0 90 90" version="1.1" xmlns="http://www.w3.org/2000/svg" xmlns:xlink="http://www.w3.org/1999/xlink">
    <!-- Generator: Sketch 48.2 (47327) - http://www.bohemiancoding.com/sketch -->
    <title>ChatPods</title>
    <desc>Created with Sketch.</desc>
    <defs></defs>
    <g id="Categories" stroke="none" stroke-width="1" fill="none" fill-rule="evenodd">
        <g id="ChatPods" fill-rule="nonzero">
            <g id="chatpods" transform="translate(-7.000000, -7.000000)">
                <rect id="_Rectangle_" fill="#5ABBDA" transform="translate(51.823163, 51.826827) rotate(-45.000000) translate(-51.823163, -51.826827) " x="15.7731633" y="15.7768269" width="72.1" height="72.1" rx="14.85"></rect>
                <g id="_Group_2" transform="translate(18.817308, 23.769231)" fill="#FFFFFF">
                    <path d="M7.67548077,48.3208654 C7.49255426,48.3230506 7.31560057,48.2558082 7.18028846,48.1326923 C6.94254579,47.9266434 6.86283242,47.5918472 6.98221154,47.3007692 L9.09173077,42.1309615 C3.66442308,38.9320192 0.435769231,33.8810577 0.435769231,28.5032692 C0.435769231,19.1441346 10.0325962,11.5379808 21.8181731,11.5379808 C33.60375,11.5379808 43.1906731,19.1441346 43.1906731,28.5032692 C43.1906731,37.8624038 33.60375,45.4685577 21.7884615,45.4685577 C19.3907394,45.4619368 17.0050924,45.1287458 14.6973077,44.4781731 L8.03201923,48.2317308 C7.92221653,48.2900635 7.7998162,48.3206636 7.67548077,48.3208654 Z M21.7884615,13.0235577 C10.815,13.0235577 1.89163462,19.95625 1.89163462,28.5032692 C1.89163462,33.5245192 5.06086538,38.2486538 10.3495192,41.1603846 C10.6785979,41.3430784 10.8190102,41.7430406 10.6763462,42.0913462 L9.12144231,45.9043269 L14.2417308,43.0619231 C14.4131936,42.9636694 14.618087,42.9421017 14.80625,43.0025 C17.0758532,43.6576806 19.4261836,43.9910608 21.7884615,43.9928846 C32.7520192,43.9928846 41.6753846,37.0601923 41.6753846,28.5131731 C41.6753846,19.9661538 32.7817308,13.0235577 21.7884615,13.0235577 Z" id="_Compound_Path_"></path>
                    <path d="M53.6986538,43.90375 C53.5743184,43.9035482 53.4519181,43.8729481 53.3421154,43.8146154 L45.4190385,39.3875962 C42.6810255,40.1475599 39.8521942,40.530735 37.0106731,40.5265385 C23.1452885,40.5265385 11.8350962,31.6130769 11.8350962,20.5801923 C11.8350962,9.54730769 23.0759615,0.633846154 36.9611538,0.633846154 C50.8463462,0.633846154 62.1268269,9.54730769 62.1268269,20.5801923 C62.1268269,26.9384615 58.3039423,32.9104808 51.8565385,36.6640385 L54.3919231,42.8836538 C54.5128985,43.1777333 54.4332596,43.5161987 54.1938462,43.7254808 C54.0551672,43.841785 53.8796429,43.9049738 53.6986538,43.90375 Z M45.4586538,37.8425962 C45.5877031,37.8403411 45.7147525,37.8746788 45.8250962,37.9416346 L52.2130769,41.4872115 L50.2323077,36.6145192 C50.0943098,36.2661079 50.233632,35.8692508 50.5591346,35.6835577 C56.8678846,32.2172115 60.64125,26.5720192 60.64125,20.5801923 C60.64125,10.4089423 50.0144231,2.11942308 36.9611538,2.11942308 C23.9078846,2.11942308 13.2711538,10.4089423 13.2711538,20.5801923 C13.2711538,30.7514423 23.8979808,39.0409615 36.9611538,39.0409615 C39.7660061,39.0499827 42.5576365,38.6564195 45.2506731,37.8723077 C45.3182701,37.8527297 45.3882788,37.8427284 45.4586538,37.8425962 Z" id="_Compound_Path_2"></path>
                </g>
            </g>
        </g>
    </g>
</svg>