<?xml version="1.0" encoding="UTF-8"?>
<svg width="90px" height="90px" viewBox="0 0 90 90" version="1.1" xmlns="http://www.w3.org/2000/svg" xmlns:xlink="http://www.w3.org/1999/xlink">
    <!-- Generator: Sketch 48.2 (47327) - http://www.bohemiancoding.com/sketch -->
    <title>collaboratorium</title>
    <desc>Created with Sketch.</desc>
    <defs></defs>
    <g id="Categories" stroke="none" stroke-width="1" fill="none" fill-rule="evenodd">
        <g id="collaboratorium" fill-rule="nonzero">
            <g transform="translate(-7.000000, -7.000000)">
                <rect id="_Rectangle_" fill="#5ABBDA" transform="translate(51.823163, 51.826827) rotate(-45.000000) translate(-51.823163, -51.826827) " x="15.7731633" y="15.7768269" width="72.1" height="72.1" rx="14.85"></rect>
                <g id="_Group_2" transform="translate(6.932692, 26.740385)" fill="#FFFFFF">
                    <path d="M84.2520192,37.4464423 C84.0914169,37.4457384 83.9352503,37.3936829 83.8063462,37.2978846 C83.5884615,37.1394231 61.9188462,20.9466346 52.4903846,14.2318269 C44.8842308,8.84413462 42.6360577,10.7456731 38.5556731,14.2318269 C37.7534615,14.9052885 36.9413462,15.5985577 36.0004808,16.3215385 C29.7016346,21.1050962 23.56125,16.3215385 23.5018269,16.3215385 C23.3235735,16.1794748 23.2182139,15.9651225 23.2146154,15.7372115 C23.2153381,15.5086176 23.3212761,15.2930885 23.5018269,15.1528846 C24.1158654,14.6675962 38.4863462,3.26826923 41.32875,1.83221154 C44.4979808,0.247596154 48.5783654,0.633846154 53.7877885,3.00086538 C54.9960577,3.54557692 56.2439423,4.17942308 57.5809615,4.85288462 C61.9386538,7.07134615 66.8806731,9.57701923 71.4463462,9.57701923 L81.8453846,9.57701923 C82.2556154,9.57701923 82.5881731,9.90957695 82.5881731,10.3198077 C82.5881731,10.7300384 82.2556154,11.0625962 81.8453846,11.0625962 L71.45625,11.0625962 C66.5043269,11.0625962 61.41375,8.46778846 56.9075,6.18 C55.5902885,5.51644231 54.3523077,4.88259615 53.17375,4.35769231 C48.3901923,2.17884615 44.7356731,1.79259615 41.9923077,3.15932692 C39.6153846,4.30817308 28.325,13.1721154 25.1953846,15.6480769 C28.2791069,17.5813844 32.2461312,17.3631981 35.0992308,15.1033654 C36.0103846,14.4100962 36.8125962,13.7267308 37.595,13.1225962 C41.7843269,9.57701923 44.805,7.01192308 53.3520192,13.0730769 C62.8002885,19.7482692 84.4798077,35.9509615 84.6976923,36.1094231 C84.9957722,36.3515192 85.0601808,36.78091 84.84625,37.0998077 C84.7180773,37.3069151 84.4953894,37.4368164 84.2520192,37.4464423 Z" id="_Path_"></path>
                    <path d="M41.0118269,52.1833654 C40.6196705,52.1816657 40.2308441,52.1112747 39.8629808,51.9753846 C38.9815385,51.6485577 37.8029808,51.2821154 36.43625,50.8463462 C29.5035577,48.6476923 17.7774038,44.9733654 7.59625,36.4956731 C5.50653846,34.7525962 0.762596154,33.0788462 0.713076923,33.0590385 C0.518177773,32.9923159 0.3591429,32.8486271 0.273052737,32.6614746 C0.186962574,32.4743221 0.181341456,32.260063 0.2575,32.0686538 C0.321290903,31.8718703 0.465274143,31.7112102 0.653918622,31.6263202 C0.8425631,31.5414302 1.05829754,31.5402173 1.24788462,31.6229808 C1.45586538,31.6923077 6.28894231,33.4056731 8.57673077,35.3171154 C18.5499038,43.5967308 30.0482692,47.2017308 36.9215385,49.3904808 C38.3080769,49.82625 39.5064423,50.2025962 40.4175962,50.5393269 C41.2672102,50.8338733 42.2059333,50.4791259 42.6484024,49.696296 C43.0908715,48.9134661 42.9106402,47.9262662 42.2200962,47.3502885 L39.1499038,44.8545192 C38.624644,44.4247327 38.2988336,43.7981743 38.2486538,43.1213462 C38.1865965,42.4436924 38.413131,41.7712805 38.8725962,41.2693269 C39.7330516,40.3133568 41.1806373,40.1716051 42.2101923,40.9425 L51.3316346,47.8751923 C52.2450533,48.3758347 53.386869,48.138532 54.025168,47.3153973 C54.6634671,46.4922626 54.6090212,45.32732 53.8967308,44.5673077 L47.4790385,39.4371154 C46.3385971,38.5400775 46.1412795,36.8883742 47.0383174,35.7479327 C47.9353552,34.6074913 49.5870585,34.4101737 50.7275,35.3072115 L60.5521154,42.9232692 C61.5657552,43.6903222 63.004268,43.5197994 63.8104808,42.5370192 C64.2084374,42.0411968 64.3872413,41.404655 64.3056731,40.7741346 C64.2385108,40.1307079 63.9043458,39.5450207 63.3846154,39.1598077 L55.7289423,33.4155769 C54.522864,32.5240088 54.2679031,30.8235303 55.1594712,29.617452 C56.0510393,28.4113736 57.7515178,28.1564127 58.9575962,29.0479808 L68.1681731,35.7925 C68.8786478,36.3055046 69.8252264,36.3499212 70.5806174,35.9056998 C71.3360083,35.4614784 71.7573032,34.612659 71.6543269,33.7424038 C71.5824853,33.1552943 71.2750369,32.622622 70.8025962,32.2667308 C64.7018269,27.6317308 50.3610577,16.7375 48.8853846,15.6876923 C46.6372115,14.0832692 44.9238462,13.9446154 43.1906731,15.2618269 C40.7543269,17.1633654 40.2195192,17.5892308 36.4659615,20.3821154 C32.4350962,23.4027885 28.0873077,22.5411538 24.3535577,21.2932692 C22.3093769,20.6676729 20.7587773,18.9922689 20.2929808,16.9058654 C19.9386209,14.9366654 20.7005706,12.9327376 22.27375,11.6964423 L31.5536538,4.25865385 L8.77480769,11.0923077 C8.37848596,11.2076945 7.96317265,10.982365 7.84384615,10.5872115 C7.72821794,10.1963261 7.94920688,9.78528669 8.33903846,9.66615385 L34.8120192,1.74307692 C35.1505524,1.63488179 35.517923,1.78516974 35.6835577,2.09961538 C35.8533445,2.41473928 35.7742327,2.80613456 35.4953846,3.03057692 L23.175,12.875 C22.0752926,13.7798849 21.5459175,15.2054163 21.7884615,16.60875 C22.1573766,18.1724108 23.330892,19.4213935 24.8685577,19.8869231 C28.3943269,21.0654808 32.1379808,21.7884615 35.6043269,19.1936538 C39.3182692,16.4106731 39.8926923,15.9848077 42.3191346,14.0931731 C45.6369231,11.5082692 48.7665385,13.7465385 49.7866346,14.4794231 C51.2821154,15.5391346 65.6327885,26.4432692 71.7434615,31.0782692 C73.3843844,32.2952871 73.7280274,34.6121059 72.5110096,36.2530288 C71.2939917,37.8939517 68.977173,38.2375947 67.33625,37.0205769 L58.1157692,30.2760577 C57.5797684,29.8846327 56.8297524,29.9898981 56.4222115,30.51375 C56.2219627,30.776359 56.1330298,31.1071894 56.1746154,31.4348077 C56.2166959,31.7638077 56.3921721,32.0610428 56.6599038,32.2568269 L64.3155769,38.0010577 C65.1475797,38.6214561 65.6907425,39.5541962 65.8197013,40.5839984 C65.9486602,41.6138005 65.6522714,42.651675 64.9989423,43.4580769 C63.6867452,45.0703537 61.3303068,45.3468073 59.6805769,44.0820192 L49.8163462,36.4461538 C49.5787581,36.2559409 49.2744389,36.1697044 48.9723819,36.2069954 C48.6703249,36.2442864 48.3961164,36.401946 48.2119231,36.6442308 C47.8345667,37.1380145 47.9227078,37.8431435 48.41,38.2288462 L54.8177885,43.3689423 C56.3876048,44.588695 56.6713873,46.8500875 55.4516346,48.4199038 C54.2318819,49.9897201 51.9704894,50.2735027 50.4006731,49.05375 L41.2792308,42.1210577 C40.9678127,41.8787234 40.5422522,41.8443773 40.1960015,42.0336324 C39.8497507,42.2228874 39.6488839,42.5996286 39.6847115,42.9925962 C39.7036052,43.2677903 39.8364124,43.5226366 40.0511538,43.6957692 L43.1213462,46.1816346 C44.2063687,47.0808319 44.6143987,48.5619043 44.1429598,49.889901 C43.671521,51.2178976 42.4209543,52.1101682 41.0118269,52.1239423 L41.0118269,52.1833654 Z" id="_Path_2"></path>
                </g>
            </g>
        </g>
    </g>
</svg>