<?xml version="1.0" encoding="UTF-8"?>
<svg width="90px" height="90px" viewBox="0 0 90 90" version="1.1" xmlns="http://www.w3.org/2000/svg" xmlns:xlink="http://www.w3.org/1999/xlink">
    <!-- Generator: Sketch 48.2 (47327) - http://www.bohemiancoding.com/sketch -->
    <title>ideapad</title>
    <desc>Created with Sketch.</desc>
    <defs></defs>
    <g id="Categories" stroke="none" stroke-width="1" fill="none" fill-rule="evenodd">
        <g id="ideapad" fill-rule="nonzero">
            <g transform="translate(-7.000000, -7.000000)">
                <rect id="_Rectangle_" fill="#5ABBDA" transform="translate(51.823163, 51.826827) rotate(-45.000000) translate(-51.823163, -51.826827) " x="15.7731633" y="15.7768269" width="72.1" height="72.1" rx="14.85"></rect>
                <g id="_Group_2" transform="translate(22.778846, 16.836538)" fill="#FFFFFF">
                    <path d="M34.7922115,59.4230769 L23.2542308,59.4230769 C22.1602821,59.4230769 21.2734615,58.5362563 21.2734615,57.4423077 C21.2734615,56.3483591 22.1602821,55.4615385 23.2542308,55.4615385 L34.7922115,55.4615385 C35.8861602,55.4615385 36.7729808,56.3483591 36.7729808,57.4423077 C36.7729808,58.5362563 35.8861602,59.4230769 34.7922115,59.4230769 Z M23.2542308,56.9570192 C22.9807436,56.9570192 22.7590385,57.1787244 22.7590385,57.4522115 C22.7590385,57.7256987 22.9807436,57.9474038 23.2542308,57.9474038 L34.7922115,57.9474038 C35.0656987,57.9474038 35.2874038,57.7256987 35.2874038,57.4522115 C35.2874038,57.1787244 35.0656987,56.9570192 34.7922115,56.9570192 L23.2542308,56.9570192 Z" id="_Compound_Path_"></path>
                    <path d="M34.7922115,63.8104808 L23.2542308,63.8104808 C22.1602821,63.8104808 21.2734615,62.9236602 21.2734615,61.8297115 C21.2734615,60.7357629 22.1602821,59.8489423 23.2542308,59.8489423 L34.7922115,59.8489423 C35.8861602,59.8489423 36.7729808,60.7357629 36.7729808,61.8297115 C36.7729808,62.9236602 35.8861602,63.8104808 34.7922115,63.8104808 Z M23.2542308,61.4038462 C22.9807436,61.4038462 22.7590385,61.6255513 22.7590385,61.8990385 C22.7590385,62.1725256 22.9807436,62.3942308 23.2542308,62.3942308 L34.7922115,62.3942308 C35.0656987,62.3942308 35.2874038,62.1725256 35.2874038,61.8990385 C35.2874038,61.6255513 35.0656987,61.4038462 34.7922115,61.4038462 L23.2542308,61.4038462 Z" id="_Compound_Path_2"></path>
                    <path d="M33.6730769,54.8375962 L24.3832692,54.8375962 C22.3102366,54.8375962 20.6297115,53.1570711 20.6297115,51.0840385 C20.550633,46.5874024 19.0609543,42.2292261 16.3710577,38.625 L16.1729808,38.3675 C13.9783641,35.5336413 12.7932178,32.047917 12.8056731,28.4636538 C12.8098807,23.9593832 14.6775739,19.6575946 17.9655769,16.5790385 C22.5982624,12.2578318 29.3206526,11.0245385 35.1855545,13.4198521 C41.0504564,15.8151656 44.9874424,21.4019075 45.2704808,27.7307692 C45.4470601,31.5574088 44.2687542,35.3237796 41.9427885,38.3675 L41.3782692,37.8921154 L41.9328846,38.3873077 L41.7447115,38.6349038 C39.060641,42.2302412 37.5743691,46.5781927 37.4959615,51.0642308 C37.498746,52.0744605 37.0952638,53.043393 36.3762794,53.7530642 C35.6572949,54.4627354 34.6831845,54.853551 33.6730769,54.8375962 Z M17.3416346,37.46625 L17.5397115,37.72375 C20.4284038,41.5870615 22.0290942,46.2609389 22.1152885,51.0840385 C22.1207129,52.3343559 23.1329518,53.3465948 24.3832692,53.3520192 L33.6730769,53.3520192 C34.9272603,53.3520311 35.9455086,52.33821 35.9509615,51.0840385 C36.0348196,46.2667713 37.6282686,41.5972727 40.5067308,37.7336538 L40.7147115,37.4761538 C44.6291491,32.3642173 44.7774246,25.3044767 41.0810759,20.0326911 C37.3847273,14.7609055 30.6971359,12.4941798 24.5571331,14.4319832 C18.4171303,16.3697866 14.2422674,22.0647355 14.2417308,28.5032692 C14.2302661,31.7489501 15.3000455,34.9060189 17.2822115,37.4761538 L17.3416346,37.46625 Z" id="_Compound_Path_3"></path>
                    <path d="M29.0281731,68.2077885 C28.1797608,68.2077885 27.3660973,67.870758 26.7661793,67.27084 C26.1662612,66.6709219 25.8292308,65.8572584 25.8292308,65.0088462 C25.8265391,64.8110335 25.9039323,64.6205344 26.0438199,64.4806468 C26.1837075,64.3407592 26.3742066,64.263366 26.5720192,64.2660577 L31.5239423,64.2660577 C31.934173,64.2660577 32.2667308,64.5986154 32.2667308,65.0088462 C32.2667964,65.864167 31.9243333,66.6838922 31.3158197,67.2849621 C30.7073062,67.8860321 29.8834284,68.2183807 29.0281731,68.2077885 Z M27.4831731,65.7516346 C27.7681577,66.346096 28.3689306,66.7243274 29.0281731,66.7243274 C29.6874155,66.7243274 30.2881884,66.346096 30.5731731,65.7516346 L27.4831731,65.7516346 Z" id="_Compound_Path_4"></path>
                    <path d="M29.0479808,11.2210577 C28.0579573,11.2210577 27.2553846,10.4184851 27.2553846,9.42846154 L27.2553846,1.83221154 C27.2553846,0.84218802 28.0579573,0.0396153846 29.0479808,0.0396153846 C30.0380043,0.0396153846 30.8405769,0.84218802 30.8405769,1.83221154 L30.8405769,9.42846154 C30.8405769,10.4184851 30.0380043,11.2210577 29.0479808,11.2210577 Z M29.0479808,1.52519231 C28.8784187,1.52519231 28.7409615,1.6626495 28.7409615,1.83221154 L28.7409615,9.42846154 C28.7409615,9.59802358 28.8784187,9.73548077 29.0479808,9.73548077 C29.2175428,9.73548077 29.355,9.59802358 29.355,9.42846154 L29.355,1.83221154 C29.355,1.75078498 29.3226534,1.67269343 29.2650761,1.61511616 C29.2074989,1.55753888 29.1294073,1.52519231 29.0479808,1.52519231 Z" id="_Compound_Path_5"></path>
                    <path d="M15.2717308,16.9256731 C14.7962772,16.9257449 14.3402708,16.7369297 14.0040385,16.4007692 L8.63615385,11.0328846 C8.29989401,10.6966966 8.11097916,10.2406847 8.11097916,9.76519231 C8.11097916,9.28969988 8.29989401,8.83368799 8.63615385,8.4975 C9.34484503,7.81836298 10.4628473,7.81836298 11.1715385,8.4975 L16.5394231,13.8653846 C17.0522163,14.3780682 17.2056362,15.1491915 16.9281293,15.8191104 C16.6506225,16.4890293 15.9968524,16.9257826 15.2717308,16.9256731 Z M9.90384615,9.45817308 C9.77917683,9.45752927 9.66649635,9.53233881 9.61870028,9.6474839 C9.57090421,9.76262898 9.59748369,9.89524455 9.68596154,9.98307692 L15.0538462,15.3509615 C15.100993,15.4258171 15.1832651,15.4712298 15.2717308,15.4712298 C15.3601965,15.4712298 15.4424686,15.4258171 15.4896154,15.3509615 C15.547677,15.2933213 15.5803314,15.214891 15.5803314,15.1330769 C15.5803314,15.0512628 15.547677,14.9728325 15.4896154,14.9151923 L10.1217308,9.54730769 C10.0644732,9.48886366 9.98564908,9.45661745 9.90384615,9.45817308 Z" id="_Compound_Path_6"></path>
                    <path d="M9.56711538,30.7019231 L1.98076923,30.7019231 C1.34033628,30.7019231 0.748551819,30.3602562 0.428335334,29.805625 C0.108118849,29.2509938 0.108118849,28.56766 0.428335334,28.0130288 C0.748551819,27.4583976 1.34033628,27.1167307 1.98076923,27.1167308 L9.57701923,27.1167308 C10.2174522,27.1167307 10.8092366,27.4583976 11.1294531,28.0130288 C11.4496696,28.56766 11.4496696,29.2509938 11.1294531,29.805625 C10.8092366,30.3602562 10.2174522,30.7019231 9.57701923,30.7019231 L9.56711538,30.7019231 Z M1.98076923,28.6023077 C1.81120719,28.6023077 1.67375,28.7397649 1.67375,28.9093269 C1.67375,29.078889 1.81120719,29.2163462 1.98076923,29.2163462 L9.57701923,29.2163462 C9.74658126,29.2163461 9.88403842,29.0788889 9.88403842,28.9093269 C9.88403842,28.7397649 9.74658126,28.6023077 9.57701923,28.6023077 L1.98076923,28.6023077 Z" id="_Compound_Path_7"></path>
                    <path d="M9.90384615,49.8460577 C9.17872454,49.8461673 8.52495443,49.4094139 8.24744758,48.739495 C7.96994072,48.0695762 8.12336065,47.2984529 8.63615385,46.7857692 L14.0040385,41.4178846 C14.3377326,41.0779437 14.7954,40.8884408 15.2717308,40.8929808 C15.7485093,40.8861166 16.2070553,41.0759833 16.5394231,41.4178846 C16.8750824,41.7523805 17.0637519,42.206753 17.0637519,42.680625 C17.0637519,43.154497 16.8750824,43.6088695 16.5394231,43.9433654 L11.1715385,49.3211538 C10.8353061,49.6573144 10.3792997,49.8461295 9.90384615,49.8460577 Z M15.2717308,42.3785577 C15.1899278,42.3770021 15.1111038,42.4092483 15.0538462,42.4676923 L9.68596154,47.8355769 C9.62789991,47.8932172 9.59524557,47.9716474 9.59524557,48.0534615 C9.59524557,48.1352756 9.62789991,48.2137059 9.68596154,48.2713462 C9.84442308,48.4298077 9.96326923,48.4199038 10.1217308,48.2713462 L15.4896154,42.8935577 C15.5480594,42.8363001 15.5803056,42.757476 15.57875,42.6756731 C15.5776337,42.5973032 15.5455962,42.5225489 15.4896154,42.4676923 C15.4323578,42.4092483 15.3535337,42.3770021 15.2717308,42.3785577 Z" id="_Compound_Path_8"></path>
                    <path d="M48.1921154,49.8460577 C47.7162263,49.8483343 47.2594049,49.6591817 46.9244231,49.3211538 L41.5961538,43.9433654 C41.2542525,43.6109976 41.0643858,43.1524516 41.07125,42.6756731 C41.0678492,42.1995639 41.2571753,41.7423235 41.5961538,41.4079808 C42.3015081,40.730083 43.4162804,40.730083 44.1216346,41.4079808 L49.4994231,46.7758654 C50.0122163,47.288549 50.1656362,48.0596723 49.8881293,48.7295912 C49.6106225,49.3995101 48.9568524,49.8362634 48.2317308,49.8361538 L48.1921154,49.8460577 Z M42.8143269,42.3785577 C42.7378657,42.3798227 42.6642688,42.4078596 42.6063462,42.4577885 C42.5506012,42.5168232 42.5188266,42.5944943 42.5172115,42.6756731 C42.5156559,42.757476 42.5479021,42.8363001 42.6063462,42.8935577 L47.9742308,48.2713462 C48.0243965,48.3418555 48.1055812,48.3837303 48.1921154,48.3837303 C48.2786496,48.3837303 48.3598343,48.3418555 48.41,48.2713462 C48.4680616,48.2137059 48.500716,48.1352756 48.500716,48.0534615 C48.500716,47.9716474 48.4680616,47.8932172 48.41,47.8355769 L43.0322115,42.4676923 C42.9749539,42.4092483 42.8961299,42.3770021 42.8143269,42.3785577 Z" id="_Compound_Path_9"></path>
                    <path d="M56.1151923,30.7019231 L48.5288462,30.7019231 C47.5388227,30.701923 46.7362501,29.8993504 46.7362501,28.9093269 C46.7362501,27.9193034 47.5388227,27.1167308 48.5288462,27.1167308 L56.1250962,27.1167308 C56.7655291,27.1167307 57.3573136,27.4583976 57.6775301,28.0130288 C57.9977465,28.56766 57.9977465,29.2509938 57.6775301,29.805625 C57.3573136,30.3602562 56.7655291,30.7019231 56.1250962,30.7019231 L56.1151923,30.7019231 Z M48.5288462,28.6023077 C48.3592841,28.6023077 48.2218269,28.7397649 48.2218269,28.9093269 C48.2218269,29.078889 48.3592841,29.2163462 48.5288462,29.2163462 L56.1250962,29.2163462 C56.2946582,29.2163461 56.4321153,29.0788889 56.4321153,28.9093269 C56.4321153,28.7397649 56.2946582,28.6023077 56.1250962,28.6023077 L48.5288462,28.6023077 Z" id="_Compound_Path_10"></path>
                    <path d="M42.8143269,16.9256731 C42.3565298,16.9109207 41.9212961,16.723381 41.5961538,16.4007692 C41.2626953,16.0635322 41.0773602,15.6073226 41.0811538,15.1330769 C41.0740046,14.6581957 41.2598472,14.2007369 41.5961538,13.8653846 L46.9640385,8.4975 C47.2989214,8.15879164 47.7554221,7.96818237 48.2317308,7.96818237 C48.7080394,7.96818237 49.1645402,8.15879164 49.4994231,8.4975 C50.1942353,9.19982028 50.1942353,10.3305643 49.4994231,11.0328846 L44.1216346,16.4007692 C43.7770759,16.7488013 43.303893,16.9387914 42.8143269,16.9256731 Z M48.1921154,9.45817308 C48.1105288,9.45775393 48.0321306,9.48982592 47.9742308,9.54730769 L42.5865385,14.9151923 C42.5284768,14.9728325 42.4958225,15.0512628 42.4958225,15.1330769 C42.4958225,15.214891 42.5284768,15.2933213 42.5865385,15.3509615 C42.6311399,15.4261284 42.7120678,15.4722109 42.7994712,15.4722109 C42.8868745,15.4722109 42.9678025,15.4261284 43.0124038,15.3509615 L48.3901923,9.98307692 C48.4482539,9.92543669 48.4809083,9.84700642 48.4809083,9.76519231 C48.4809083,9.6833782 48.4482539,9.60494792 48.3901923,9.54730769 C48.3372336,9.49445275 48.2667965,9.46275603 48.1921154,9.45817308 Z" id="_Compound_Path_11"></path>
                </g>
            </g>
        </g>
    </g>
</svg>