<?xml version="1.0" encoding="UTF-8"?>
<svg width="90px" height="90px" viewBox="0 0 90 90" version="1.1" xmlns="http://www.w3.org/2000/svg" xmlns:xlink="http://www.w3.org/1999/xlink">
    <!-- Generator: Sketch 48.2 (47327) - http://www.bohemiancoding.com/sketch -->
    <title>launchpad</title>
    <desc>Created with Sketch.</desc>
    <defs></defs>
    <g id="Categories" stroke="none" stroke-width="1" fill="none" fill-rule="evenodd">
        <g id="launchpad" fill-rule="nonzero">
            <g transform="translate(-7.000000, -7.000000)">
                <rect id="_Rectangle_" fill="#C54A8F" transform="translate(51.823163, 51.826827) rotate(-45.000000) translate(-51.823163, -51.826827) " x="15.7731633" y="15.7768269" width="72.1" height="72.1" rx="14.85"></rect>
                <g id="_Group_2" transform="translate(32.682692, 14.855769)" fill="#FFFFFF">
                    <path d="M19.1144231,31.4249038 C15.55909,31.4249038 12.6769231,28.5427369 12.6769231,24.9874038 C12.6769231,21.4320708 15.55909,18.5499038 19.1144231,18.5499038 C22.6697562,18.5499038 25.5519231,21.4320708 25.5519231,24.9874038 C25.5464694,28.5404755 22.6674947,31.4194502 19.1144231,31.4249038 Z M19.1144231,20.0453846 C16.3795515,20.0453846 14.1625,22.2624361 14.1625,24.9973077 C14.1625,27.7321793 16.3795515,29.9492308 19.1144231,29.9492308 C21.8492947,29.9492308 24.0663462,27.7321793 24.0663462,24.9973077 C24.0663462,23.683976 23.5446272,22.424435 22.6159615,21.4957693 C21.6872957,20.5671036 20.4277547,20.0453846 19.1144231,20.0453846 Z" id="_Compound_Path_"></path>
                    <path d="M28.7211538,15.1132692 C28.6555362,15.1236495 28.5886946,15.1236495 28.5230769,15.1132692 C22.395003,13.3966104 15.9130739,13.3966104 9.785,15.1132692 C9.50813825,15.1914226 9.21104341,15.10268 9.02240385,14.8854808 C8.83328372,14.6703191 8.78685936,14.364692 8.90355769,14.1030769 C11.1510597,8.99532492 14.4595579,4.42419574 18.6093269,0.693269231 C18.8895138,0.436465495 19.3195247,0.436465495 19.5997115,0.693269231 C23.7603873,4.41163171 27.0823827,8.97262326 29.3450962,14.0733654 C29.4591496,14.3368702 29.4088222,14.6427059 29.2163462,14.8557692 C29.0924035,15.0044257 28.9140311,15.0971794 28.7211538,15.1132692 Z M19.1144231,12.3104808 C21.8899051,12.3247442 24.6546095,12.6570404 27.3544231,13.3008654 C25.3038485,9.14552446 22.511333,5.39979446 19.1144231,2.24817308 C15.7320918,5.39295311 12.9471074,9.12416117 10.8942308,13.26125 C13.589388,12.6337075 16.3471747,12.3147346 19.1144231,12.3104808 Z" id="_Compound_Path_2"></path>
                    <path d="M19.1144231,63.5133654 C18.9793501,63.5173465 18.8597709,63.4266313 18.8272115,63.2954808 L16.4502885,54.3820192 L14.4695192,55.7883654 C14.3752584,55.8577113 14.246857,55.8577113 14.1525962,55.7883654 C14.0525884,55.7285745 13.9950453,55.6173245 14.0040385,55.5011538 L14.6180769,49.9450962 L12.6967308,51.1830769 C12.5962586,51.2557754 12.4604722,51.2557754 12.36,51.1830769 C12.2587709,51.1077233 12.218588,50.9751196 12.2609615,50.85625 L13.4098077,47.5384615 C13.4454919,47.4406553 13.5269378,47.3666135 13.6276923,47.3403846 C15.427382,46.923574 17.2671813,46.7043921 19.1144231,46.6867308 C20.9616649,46.7043921 22.8014641,46.923574 24.6011538,47.3403846 C24.7003319,47.3694727 24.7806579,47.4424962 24.8190385,47.5384615 L25.9381731,50.8265385 C25.9805467,50.9454081 25.9403637,51.0780117 25.8391346,51.1533654 C25.7355615,51.2277501 25.5960732,51.2277501 25.4925,51.1533654 L23.5810577,49.9153846 L24.1950962,55.4714423 C24.2074334,55.589307 24.1485486,55.7032316 24.0452593,55.7613318 C23.9419701,55.819432 23.8140321,55.8105953 23.7197115,55.7388462 L21.7389423,54.3325 L19.3620192,63.2459615 C19.3502587,63.3811891 19.2483478,63.4912528 19.1144231,63.5133654 Z M16.6285577,53.6095192 L16.7275962,53.6095192 C16.8183915,53.6470405 16.887492,53.7234147 16.9157692,53.8175 L19.1144231,62.0575 L21.3130769,53.8175 C21.3413542,53.7234147 21.4104546,53.6470405 21.50125,53.6095192 C21.5884205,53.5653961 21.6913872,53.5653961 21.7785577,53.6095192 L23.5315385,54.8772115 L22.9274038,49.3706731 C22.9139687,49.2561408 22.9680192,49.144179 23.0660577,49.0834615 C23.1635338,49.024723 23.2855047,49.024723 23.3829808,49.0834615 L25.10625,50.2025962 L24.3139423,47.8751923 C20.8943809,47.0697802 17.3344652,47.0697802 13.9149038,47.8751923 L13.1225962,50.2025962 L14.8557692,49.1329808 C14.9532453,49.0742422 15.0752162,49.0742422 15.1726923,49.1329808 C15.2707308,49.1936982 15.3247813,49.30566 15.3113462,49.4201923 L14.7072115,54.9267308 L16.4601923,53.6590385 C16.5088946,53.6224379 16.5676709,53.6016933 16.6285577,53.5996154 L16.6285577,53.6095192 Z" id="_Compound_Path_3"></path>
                    <path d="M11.9341346,48.8853846 L5.86307692,48.8853846 C4.88881447,48.8876826 4.00765329,48.3070353 3.62543574,47.4108756 C3.24321819,46.5147158 3.43407272,45.4768474 4.11009615,44.7752885 L8.32913462,40.3977885 C8.51047354,40.2116407 8.77591024,40.1337999 9.02906129,40.1925309 C9.28221234,40.251262 9.48626129,40.4380235 9.56711538,40.685 C10.3166778,43.1393877 11.3121095,45.5118332 12.5382692,47.76625 C12.6670672,47.9972365 12.6651885,48.2788723 12.5333204,48.5081199 C12.4014522,48.7373676 12.1589445,48.8805884 11.8945192,48.8853846 L11.9341346,48.8853846 Z M8.54701923,42.3092308 L5.17971154,45.8052885 C4.94109344,46.0764094 4.86898463,46.4559295 4.99153846,46.7956731 C5.13504611,47.1491706 5.48163417,47.3776036 5.86307692,47.3700962 L10.6961538,47.3700962 C9.8702422,45.7317833 9.15233273,44.0412223 8.54701923,42.3092308 Z" id="_Compound_Path_4"></path>
                    <path d="M11.9935577,48.8853846 L11.9341346,48.8853846 C11.5699045,48.8852206 11.2595268,48.6209801 11.20125,48.2614423 C11.1390301,47.9024372 11.3499916,47.5522411 11.6964423,47.4394231 C11.9319606,47.3583593 12.1917725,47.3912932 12.3996154,47.5285577 C12.6824487,47.702498 12.8130048,48.0448573 12.7178071,48.3629569 C12.6226095,48.6810565 12.3254453,48.8954119 11.9935577,48.8853846 Z" id="_Path_"></path>
                    <path d="M19.1144231,67.1876923 C18.8157595,67.1870291 18.5465405,67.0075498 18.4310577,66.7321154 L14.7864423,58.1058654 L12.4392308,59.8984615 C12.201294,60.0806627 11.877174,60.1020327 11.6173751,59.9526483 C11.3575761,59.8032639 11.2129957,59.5123912 11.2507692,59.2150962 L11.8549038,54.2631731 L9.98307692,55.6398077 C9.71947553,55.8342425 9.35962875,55.8330578 9.09731334,55.6368915 C8.83499794,55.4407252 8.73214256,55.0958892 8.84413462,54.7880769 L11.2903846,47.8553846 C11.3562749,47.6702403 11.4910958,47.5176798 11.6667308,47.4295192 L11.7657692,47.4295192 L11.8747115,47.4295192 C12.1421154,47.3502885 12.7165385,47.1819231 13.5286538,46.99375 C13.8026391,46.8559267 14.13316,46.9006679 14.3606433,47.1063729 C14.5881267,47.3120779 14.665792,47.6364448 14.556143,47.9228717 C14.4464941,48.2092985 14.1720795,48.3988834 13.8653846,48.4000962 C13.3107692,48.5189423 12.875,48.6377885 12.5778846,48.7269231 L11.0625962,52.9954808 L12.3699038,52.0050962 C12.615862,51.8413997 12.9360611,51.8413997 13.1820192,52.0050962 C13.4380862,52.1556765 13.5816374,52.442779 13.5484615,52.7379808 L12.9542308,57.6899038 L14.6576923,56.3825962 C14.8406367,56.242035 15.0785086,56.1944606 15.3014423,56.2538462 C15.5220189,56.3143565 15.703788,56.4706779 15.7966346,56.6797115 L19.1243269,64.6027885 L22.4520192,56.6797115 C22.5448658,56.4706779 22.7266349,56.3143565 22.9472115,56.2538462 C23.1701453,56.1944606 23.4080172,56.242035 23.5909615,56.3825962 L25.2944231,57.6899038 L24.7001923,52.7379808 C24.6670165,52.442779 24.8105677,52.1556765 25.0666346,52.0050962 C25.3125928,51.8413997 25.6327918,51.8413997 25.87875,52.0050962 L27.1860577,52.9954808 L25.6509615,48.7269231 C25.36375,48.6377885 24.9279808,48.5189423 24.3733654,48.4000962 C24.1133001,48.3417142 23.9041362,48.1490238 23.8246639,47.8946096 C23.7451915,47.6401954 23.8074844,47.362709 23.9880773,47.1666769 C24.1686703,46.9706447 24.440127,46.8858487 24.7001923,46.9442308 C25.5024038,47.1324038 26.0867308,47.3007692 26.3541346,47.38 L26.4630769,47.38 L26.5621154,47.38 C26.7377503,47.4681606 26.8725713,47.6207211 26.9384615,47.8058654 L29.3847115,54.7385577 C29.4967036,55.0463699 29.3938482,55.3912059 29.1315328,55.5873722 C28.8692174,55.7835386 28.5093706,55.7847233 28.2457692,55.5902885 L26.3739423,54.2136538 L26.9780769,59.1655769 C27.0108052,59.4658565 26.8632148,59.7571533 26.6017308,59.9083654 C26.3439157,60.0546027 26.0233979,60.0311502 25.7896154,59.8489423 L23.4424038,58.0563462 L19.8076923,66.7321154 C19.6908292,67.0108918 19.4166846,67.191044 19.1144231,67.1876923 Z" id="_Path_2"></path>
                    <path d="M37.3870192,70.9016346 L0.742788462,70.9016346 C0.332557722,70.9016346 0,70.5690769 0,70.1588462 C0,69.7486154 0.332557722,69.4160577 0.742788462,69.4160577 L37.3870192,69.4160577 C37.79725,69.4160577 38.1298077,69.7486154 38.1298077,70.1588462 C38.1298077,70.5690769 37.79725,70.9016346 37.3870192,70.9016346 Z" id="_Path_3"></path>
                    <path d="M34.6634615,73.4469231 L3.27817308,73.4469231 C2.86794234,73.4469231 2.53538462,73.1143654 2.53538462,72.7041346 C2.53538462,72.2939039 2.86794234,71.9613462 3.27817308,71.9613462 L34.6634615,71.9613462 C35.0736923,71.9613462 35.40625,72.2939039 35.40625,72.7041346 C35.40625,73.1143654 35.0736923,73.4469231 34.6634615,73.4469231 Z" id="_Path_4"></path>
                    <path d="M32.4251923,48.8853846 L26.2947115,48.8853846 C26.0302863,48.8805884 25.7877785,48.7373676 25.6559104,48.5081199 C25.5240423,48.2788723 25.5221635,47.9972365 25.6509615,47.76625 C25.6509615,47.76625 26.1263462,46.9541346 26.7403846,45.5576923 C27.5033353,43.9500053 28.1648857,42.2961293 28.7211538,40.6057692 C28.8020079,40.3587927 29.0060569,40.1720312 29.2592079,40.1133001 C29.512359,40.0545691 29.7777957,40.1324099 29.9591346,40.3185577 L34.2177885,44.7356731 C34.8925607,45.435936 35.0840684,46.4714213 34.7043836,47.3667007 C34.3246989,48.2619802 33.4471739,48.8440925 32.4747115,48.8457692 L32.4251923,48.8853846 Z M27.5326923,47.3998077 L32.4251923,47.3998077 C32.7825503,47.3610315 33.0908441,47.1316732 33.2307011,46.8005413 C33.370558,46.4694094 33.3200193,46.0884944 33.0986538,45.8052885 L29.7115385,42.2696154 C29.2460577,43.6066346 28.7211538,44.9139423 28.1467308,46.1618269 C27.9090385,46.6471154 27.7307692,47.0630769 27.5326923,47.3998077 Z" id="_Compound_Path_5"></path>
                    <path d="M10.7753846,46.5975962 C10.4850196,46.5964589 10.2219393,46.4262305 10.1019231,46.1618269 C9.33948696,44.5302087 8.67798515,42.8533016 8.12115385,41.1405769 C5.98192308,34.4950962 4.3775,24.4129808 8.82432692,14.0733654 C8.91505383,13.8702931 9.08792172,13.7154323 9.29971154,13.6475 C15.6945578,11.8650426 22.4550576,11.8650426 28.8499038,13.6475 C29.0616937,13.7154323 29.2345616,13.8702931 29.3252885,14.0733654 C33.7622115,24.3931731 32.1676923,34.4653846 30.0482692,41.1009615 C29.4869279,42.8249778 28.8255493,44.5148001 28.0675,46.1618269 C27.9197228,46.4916276 27.556024,46.6672064 27.2058654,46.5777885 C21.8587482,45.2042882 16.2512518,45.2042882 10.9041346,46.5777885 L10.7753846,46.5975962 Z M10.0920192,14.9845192 C6.00173077,24.7893269 7.53682692,34.3564423 9.56711538,40.7345192 C10.0524038,42.2200962 10.5575,43.7056731 11.20125,45.0327885 C16.4115664,43.8016792 21.8370875,43.8016792 27.0474038,45.0327885 C27.6823479,43.5873979 28.2410323,42.1096944 28.7211538,40.6057692 C30.7019231,34.2871154 32.2766346,24.7596154 28.1863462,14.9449038 C22.275776,13.3602865 16.0521087,13.3602865 10.1415385,14.9449038 L10.0920192,14.9845192 Z" id="_Compound_Path_6"></path>
                    <path d="M26.2947115,48.8853846 C26.2161266,48.8996909 26.1356042,48.8996909 26.0570192,48.8853846 L25.9183654,48.8853846 C25.6707692,48.8061538 25.1260577,48.6476923 24.3733654,48.4793269 C22.6487958,48.0766072 20.8852925,47.8640569 19.1144231,47.8454808 C17.3435537,47.8640569 15.5800504,48.0766072 13.8554808,48.4793269 C13.1027885,48.6476923 12.5580769,48.8061538 12.3104808,48.8853846 L11.9935577,48.2020192 L12.2213462,48.9150962 C11.8594738,49.0103761 11.4785187,48.8523202 11.2903846,48.5288462 C11.2903846,48.5288462 10.7852885,47.6573077 10.1019231,46.1816346 C10.0072512,45.9809578 10.0072512,45.7484653 10.1019231,45.5477885 C10.1926796,45.3469944 10.3723131,45.2003548 10.5872115,45.1516346 C16.1741927,43.7122064 22.0348458,43.7122064 27.6218269,45.1516346 C27.8367254,45.2003548 28.0163589,45.3469944 28.1071154,45.5477885 C28.2017873,45.7484653 28.2017873,45.9809578 28.1071154,46.1816346 C27.75651,46.9845466 27.3630924,47.7680759 26.9285577,48.5288462 C26.7953013,48.7515313 26.5542165,48.8871414 26.2947115,48.8853846 Z M11.8846154,46.3698077 C12.0628846,46.73625 12.2114423,47.0333654 12.3401923,47.2611538 L13.5682692,46.9442308 C15.4009523,46.5230479 17.2736858,46.3005778 19.1540385,46.2806731 C21.0343912,46.3005778 22.9071246,46.5230479 24.7398077,46.9442308 C25.2449038,47.0630769 25.6608654,47.1720192 25.9678846,47.2611538 C26.0966346,47.0333654 26.2451923,46.73625 26.4234615,46.3698077 C21.6391489,45.2737759 16.668928,45.2737759 11.8846154,46.3698077 Z" id="_Compound_Path_7"></path>
                </g>
            </g>
        </g>
    </g>
</svg>