<?xml version="1.0" encoding="UTF-8"?>
<svg width="90px" height="90px" viewBox="0 0 90 90" version="1.1" xmlns="http://www.w3.org/2000/svg" xmlns:xlink="http://www.w3.org/1999/xlink">
    <!-- Generator: Sketch 48.2 (47327) - http://www.bohemiancoding.com/sketch -->
    <title>Startup Expo</title>
    <desc>Created with Sketch.</desc>
    <defs></defs>
    <g id="Categories" stroke="none" stroke-width="1" fill="none" fill-rule="evenodd">
        <g id="Startup-Expo" fill-rule="nonzero">
            <g id="startup-expo" transform="translate(-7.000000, -7.000000)">
                <rect id="_Rectangle_2" fill="#C54A8F" transform="translate(51.823163, 51.826827) rotate(-45.000000) translate(-51.823163, -51.826827) " x="15.7731633" y="15.7768269" width="72.1" height="72.1" rx="14.85"></rect>
                <g id="_Group_2" transform="translate(15.846154, 25.750000)" fill="#FFFFFF">
                    <g id="_Clip_Group_">
                        <g id="_Group_3">
                            <g id="_Group_4">
                                <g id="_Group_5">
                                    <path d="M34.3069231,53.5699038 L1.70346154,53.5699038 C1.2932308,53.5699038 0.960673077,53.2373461 0.960673077,52.8271154 L0.960673077,30.9594231 C0.960673077,30.5491923 1.2932308,30.2166346 1.70346154,30.2166346 L34.3069231,30.2166346 C34.5047357,30.2139429 34.6952348,30.2913361 34.8351224,30.4312237 C34.9750101,30.5711113 35.0524032,30.7616104 35.0497115,30.9594231 L35.0497115,52.8271154 C35.0524032,53.024928 34.9750101,53.2154271 34.8351224,53.3553148 C34.6952348,53.4952024 34.5047357,53.5725956 34.3069231,53.5699038 Z M2.44625,52.0843269 L33.5641346,52.0843269 L33.5641346,31.6923077 L2.44625,31.6923077 L2.44625,52.0843269 Z" id="_Compound_Path_"></path>
                                    <path d="M27.9783654,14.8557692 L8.04192308,14.8557692 C5.45066449,14.9527277 3.01364902,13.6256001 1.68921852,11.3962715 C0.364788019,9.16694296 0.364788019,6.39199935 1.68921852,4.16267079 C3.01364902,1.93334222 5.45066449,0.606214641 8.04192308,0.703173077 L27.9783654,0.703173077 C31.7835388,0.845553181 34.794838,3.97163488 34.794838,7.77947115 C34.794838,11.5873074 31.7835388,14.7133891 27.9783654,14.8557692 Z M8.04192308,2.15903846 C5.98842021,2.07258956 4.05280385,3.11886406 3.00028185,4.88423792 C1.94775985,6.64961178 1.94775985,8.84990745 3.00028185,10.6152813 C4.05280385,12.3806552 5.98842021,13.4269297 8.04192308,13.3404808 L27.9783654,13.3404808 C30.9745711,13.2143457 33.3386788,10.7486192 33.3386788,7.74975962 C33.3386788,4.75090002 30.9745711,2.28517352 27.9783654,2.15903846 L8.04192308,2.15903846 Z" id="_Compound_Path_2"></path>
                                    <path d="M23.3730769,31.6923077 L12.6373077,31.6923077 C12.2293068,31.6869737 11.8998533,31.3575201 11.8945192,30.9495192 C11.8945192,27.7278405 14.5062059,25.1161538 17.7278846,25.1161538 L18.2924038,25.1161538 C21.5102142,25.121617 24.11587,27.7317042 24.1158654,30.9495192 C24.1105314,31.3575201 23.7810778,31.6869737 23.3730769,31.6923077 Z M13.4692308,30.2067308 L22.5906731,30.2067308 C22.2260352,28.1273379 20.4233229,26.6083858 18.3122115,26.6017308 L17.7278846,26.6017308 C15.6121467,26.6051924 13.8060599,28.1311685 13.4494231,30.2166346 L13.4692308,30.2067308 Z" id="_Compound_Path_3"></path>
                                    <path d="M18.0051923,26.6116346 C15.5875658,26.6116346 13.6276923,24.6517611 13.6276923,22.2341346 C13.6276923,19.8165081 15.5875658,17.8566346 18.0051923,17.8566346 C20.4228188,17.8566346 22.3826923,19.8165081 22.3826923,22.2341346 C22.3772461,24.6495016 20.4205593,26.6061884 18.0051923,26.6116346 Z M18.0051923,19.3521154 C16.8346188,19.3521222 15.7794976,20.0577931 15.3324693,21.1396471 C14.8854411,22.221501 15.1346824,23.4661419 15.9638214,24.2924414 C16.7929604,25.1187409 18.038449,25.363711 19.1187631,24.912974 C20.1990771,24.4622371 20.9011242,23.4047012 20.8971154,22.2341346 C20.8916589,20.6408387 19.5984976,19.352106 18.0051923,19.3521154 Z" id="_Compound_Path_4"></path>
                                    <path d="M5.21932692,31.6923077 C4.80909618,31.6923077 4.47653846,31.35975 4.47653846,30.9495192 L4.47653846,13.4593269 C4.47653846,13.0490962 4.80909618,12.7165385 5.21932692,12.7165385 C5.62955766,12.7165385 5.96211538,13.0490962 5.96211538,13.4593269 L5.96211538,30.9594231 C5.95150995,31.3635515 5.62356132,31.6871275 5.21932692,31.6923077 Z" id="_Path_"></path>
                                    <path d="M30.8009615,31.6923077 C30.3929606,31.6869737 30.0635071,31.3575201 30.0581731,30.9495192 L30.0581731,13.3999038 C30.0581731,12.9896731 30.3907308,12.6571154 30.8009615,12.6571154 C31.2111923,12.6571154 31.54375,12.9896731 31.54375,13.3999038 L31.54375,30.9594231 C31.5331446,31.3635515 31.2051959,31.6871275 30.8009615,31.6923077 Z" id="_Path_2"></path>
                                </g>
                                <path d="M31.6229808,44.2701923 L4.38740385,44.2701923 C3.97940296,44.2648583 3.64994941,43.9354047 3.64461538,43.5274038 L3.64461538,39.8530769 C3.64994941,39.445076 3.97940296,39.1156225 4.38740385,39.1102885 L31.6229808,39.1102885 C32.0332115,39.1102885 32.3657692,39.4428462 32.3657692,39.8530769 L32.3657692,43.5769231 C32.3396604,43.9676983 32.0146262,44.2710635 31.6229808,44.2701923 Z M5.13019231,42.7846154 L30.8801923,42.7846154 L30.8801923,40.6057692 L5.13019231,40.6057692 L5.13019231,42.7846154 Z" id="_Compound_Path_5"></path>
                            </g>
                            <g id="_Group_6" transform="translate(35.653846, 0.000000)">
                                <g id="_Group_7">
                                    <path d="M34.6040385,53.5699038 L1.98076923,53.5699038 C1.57053849,53.5699038 1.23798077,53.2373461 1.23798077,52.8271154 L1.23798077,30.9594231 C1.23798077,30.5491923 1.57053849,30.2166346 1.98076923,30.2166346 L34.6040385,30.2166346 C35.0142692,30.2166346 35.3468269,30.5491923 35.3468269,30.9594231 L35.3468269,52.8271154 C35.3468269,53.2373461 35.0142692,53.5699038 34.6040385,53.5699038 Z M2.73346154,52.0843269 L33.86125,52.0843269 L33.86125,31.6923077 L2.73346154,31.6923077 L2.73346154,52.0843269 Z" id="_Compound_Path_6"></path>
                                    <path d="M28.2655769,14.8557692 L8.32913462,14.8557692 C5.73787603,14.9527277 3.30086056,13.6256001 1.97643006,11.3962715 C0.651999557,9.16694296 0.651999557,6.39199935 1.97643006,4.16267079 C3.30086056,1.93334222 5.73787603,0.606214641 8.32913462,0.703173077 L28.2655769,0.703173077 C30.8568355,0.606214641 33.293851,1.93334222 34.6182815,4.16267079 C35.942712,6.39199935 35.942712,9.16694296 34.6182815,11.3962715 C33.293851,13.6256001 30.8568355,14.9527277 28.2655769,14.8557692 Z M8.32913462,2.15903846 C6.27563175,2.07258956 4.34001539,3.11886406 3.28749339,4.88423792 C2.23497139,6.64961178 2.23497139,8.84990745 3.28749339,10.6152813 C4.34001539,12.3806552 6.27563175,13.4269297 8.32913462,13.3404808 L28.2655769,13.3404808 C30.3190798,13.4269297 32.2546961,12.3806552 33.3072181,10.6152813 C34.3597401,8.84990745 34.3597401,6.64961178 33.3072181,4.88423792 C32.2546961,3.11886406 30.3190798,2.07258956 28.2655769,2.15903846 L8.32913462,2.15903846 Z" id="_Compound_Path_7"></path>
                                    <path d="M23.6602885,31.6923077 L12.9344231,31.6923077 C12.5241923,31.6923077 12.1916346,31.35975 12.1916346,30.9495192 C12.19163,27.7317042 14.7972858,25.121617 18.0150962,25.1161538 L18.5796154,25.1161538 C21.7974258,25.121617 24.4030816,27.7317042 24.4030769,30.9495192 C24.4030769,31.35975 24.0705192,31.6923077 23.6602885,31.6923077 Z M13.7564423,30.2067308 L22.8778846,30.2067308 C22.5132468,28.1273379 20.7105345,26.6083858 18.5994231,26.6017308 L18.0349038,26.6017308 C15.9131662,26.5996133 14.0982936,28.1259463 13.7366346,30.2166346 L13.7564423,30.2067308 Z" id="_Compound_Path_8"></path>
                                    <path d="M18.2924038,26.6116346 C15.8747774,26.6116346 13.9149038,24.6517611 13.9149038,22.2341346 C13.9149038,19.8165081 15.8747774,17.8566346 18.2924038,17.8566346 C20.7100303,17.8566346 22.6699038,19.8165081 22.6699038,22.2341346 C22.6699038,24.6517611 20.7100303,26.6116346 18.2924038,26.6116346 Z M18.2924038,19.3521154 C17.1218304,19.3521222 16.0667091,20.0577931 15.6196809,21.1396471 C15.1726526,22.221501 15.4218939,23.4661419 16.2510329,24.2924414 C17.0801719,25.1187409 18.3256605,25.363711 19.4059746,24.912974 C20.4862887,24.4622371 21.1883357,23.4047012 21.1843269,22.2341346 C21.1788704,20.6408387 19.8857091,19.352106 18.2924038,19.3521154 Z" id="_Compound_Path_9"></path>
                                    <path d="M5.50653846,31.6923077 C5.09853757,31.6869737 4.76908403,31.3575201 4.76375,30.9495192 L4.76375,13.4593269 C4.76375,13.0490962 5.09630772,12.7165385 5.50653846,12.7165385 C5.9167692,12.7165385 6.24932692,13.0490962 6.24932692,13.4593269 L6.24932692,30.9594231 C6.23872149,31.3635515 5.91077286,31.6871275 5.50653846,31.6923077 Z" id="_Path_3"></path>
                                    <path d="M31.0881731,31.6923077 C30.6801722,31.6869737 30.3507186,31.3575201 30.3453846,30.9495192 L30.3453846,13.3999038 C30.3453846,12.9896731 30.6779423,12.6571154 31.0881731,12.6571154 C31.4984038,12.6571154 31.8309615,12.9896731 31.8309615,13.3999038 L31.8309615,30.9594231 C31.825543,31.3657809 31.494567,31.6923438 31.0881731,31.6923077 Z" id="_Path_4"></path>
                                </g>
                                <path d="M30.0779808,10.0226923 L6.51673077,10.0226923 C5.09459754,10.0226923 3.94173077,8.86982554 3.94173077,7.44769231 C3.94173077,6.02555908 5.09459754,4.87269231 6.51673077,4.87269231 L30.0779808,4.87269231 C30.9979397,4.87269227 31.8480168,5.36348449 32.3079963,6.16019228 C32.7679757,6.95690006 32.7679757,7.93848455 32.3079963,8.73519234 C31.8480168,9.53190013 30.9979397,10.0226923 30.0779808,10.0226923 Z M6.51673077,6.35826923 C5.91505902,6.35826923 5.42730769,6.84602056 5.42730769,7.44769231 C5.42730769,8.04936406 5.91505902,8.53711538 6.51673077,8.53711538 L30.0779808,8.53711538 C30.6796525,8.53711538 31.1674038,8.04936406 31.1674038,7.44769231 C31.1674038,6.84602056 30.6796525,6.35826923 30.0779808,6.35826923 L6.51673077,6.35826923 Z" id="_Compound_Path_10"></path>
                            </g>
                        </g>
                    </g>
                </g>
            </g>
        </g>
    </g>
</svg>