<?xml version="1.0" encoding="UTF-8"?>
<svg width="90px" height="90px" viewBox="0 0 90 90" version="1.1" xmlns="http://www.w3.org/2000/svg" xmlns:xlink="http://www.w3.org/1999/xlink">
    <!-- Generator: Sketch 48.2 (47327) - http://www.bohemiancoding.com/sketch -->
    <title>startup-expo</title>
    <desc>Created with Sketch.</desc>
    <defs></defs>
    <g id="Categories" stroke="none" stroke-width="1" fill="none" fill-rule="evenodd">
        <g id="startup-expo" fill-rule="nonzero">
            <g transform="translate(-7.000000, -7.000000)">
                <rect id="_Rectangle_2" fill="#C54A8F" transform="translate(51.823163, 51.826827) rotate(-45.000000) translate(-51.823163, -51.826827) " x="15.7731633" y="15.7768269" width="72.1" height="72.1" rx="14.85"></rect>
                <g id="_Group_2" transform="translate(22.000000, 29.000000)" fill="#FFFFFF">
                    <g id="_Clip_Group_">
                        <g id="_Group_3">
                            <g id="_Group_4">
                                <g id="_Group_5">
                                    <path d="M28.5347007,44.5566385 L1.41685003,44.5566385 C1.0756416,44.5566385 0.799037519,44.2800344 0.799037519,43.938826 L0.799037519,25.7504256 C0.799037519,25.4092172 1.0756416,25.1326131 1.41685003,25.1326131 L28.5347007,25.1326131 C28.6992308,25.1303743 28.857678,25.1947459 28.9740292,25.311097 C29.0903804,25.4274482 29.154752,25.5858954 29.1525132,25.7504256 L29.1525132,43.938826 C29.154752,44.1033562 29.0903804,44.2618034 28.9740292,44.3781546 C28.857678,44.4945058 28.6992308,44.5588773 28.5347007,44.5566385 Z M2.03466255,43.3210135 L27.9168881,43.3210135 L27.9168881,26.3600006 L2.03466255,26.3600006 L2.03466255,43.3210135 Z" id="_Compound_Path_"></path>
                                    <path d="M23.270938,12.3562503 L6.68885015,12.3562503 C4.53357706,12.4368952 2.50659532,11.3330601 1.40500344,9.4788214 C0.303411556,7.62458273 0.303411556,5.31653007 1.40500344,3.4622914 C2.50659532,1.60805274 4.53357706,0.504217568 6.68885015,0.584862514 L23.270938,0.584862514 C26.4358819,0.703286823 28.9405227,3.30339774 28.9405227,6.4705564 C28.9405227,9.63771506 26.4358819,12.237826 23.270938,12.3562503 Z M6.68885015,1.79577504 C4.98085409,1.72387137 3.37090984,2.59410767 2.49547721,4.06245313 C1.62004457,5.53079859 1.62004457,7.36088921 2.49547721,8.82923467 C3.37090984,10.2975801 4.98085409,11.1678164 6.68885015,11.0959128 L23.270938,11.0959128 C25.7630249,10.9910002 27.7293658,8.94013815 27.7293658,6.4458439 C27.7293658,3.95154965 25.7630249,1.90068757 23.270938,1.79577504 L6.68885015,1.79577504 Z" id="_Compound_Path_2"></path>
                                    <path d="M19.4405005,26.3600006 L10.5110502,26.3600006 C10.1716965,26.355564 9.89767429,26.0815419 9.89323773,25.7421881 C9.89323773,23.0625646 12.0655018,20.8903005 14.7451253,20.8903005 L15.2146629,20.8903005 C17.8910689,20.8948445 20.0583168,23.0657782 20.058313,25.7421881 C20.0538764,26.0815419 19.7798542,26.355564 19.4405005,26.3600006 Z M11.2030003,25.1243756 L18.7897379,25.1243756 C18.4864513,23.3948455 16.9870497,22.1314608 15.2311379,22.1259255 L14.7451253,22.1259255 C12.9853654,22.1288047 11.4831571,23.3980317 11.1865253,25.1326131 L11.2030003,25.1243756 Z" id="_Compound_Path_3"></path>
                                    <path d="M14.9757753,22.134163 C12.9649203,22.134163 11.3348003,20.5040429 11.3348003,18.4931879 C11.3348003,16.4823329 12.9649203,14.8522128 14.9757753,14.8522128 C16.9866304,14.8522128 18.6167504,16.4823329 18.6167504,18.4931879 C18.6122206,20.5021636 16.984751,22.1296332 14.9757753,22.134163 Z M14.9757753,16.0960754 C14.0021537,16.0960811 13.1245591,16.6830211 12.7527445,17.5828505 C12.3809298,18.48268 12.5882356,19.5179071 13.27787,20.2051796 C13.9675044,20.8924522 15.0034365,21.0962055 15.9019851,20.7213062 C16.8005338,20.3464068 17.3844597,19.4668039 17.3811254,18.4931879 C17.376587,17.1679679 16.3010032,16.0960676 14.9757753,16.0960754 Z" id="_Compound_Path_4"></path>
                                    <path d="M4.3411626,26.3600006 C3.99995417,26.3600006 3.72335009,26.0833965 3.72335009,25.7421881 L3.72335009,11.1947628 C3.72335009,10.8535543 3.99995417,10.5769502 4.3411626,10.5769502 C4.68237103,10.5769502 4.95897511,10.8535543 4.95897511,11.1947628 L4.95897511,25.7504256 C4.95015407,26.0865585 4.67738358,26.355692 4.3411626,26.3600006 Z" id="_Path_"></path>
                                    <path d="M25.6186256,26.3600006 C25.2792718,26.355564 25.0052496,26.0815419 25.0008131,25.7421881 L25.0008131,11.1453378 C25.0008131,10.8041293 25.2774172,10.5275252 25.6186256,10.5275252 C25.959834,10.5275252 26.2364381,10.8041293 26.2364381,11.1453378 L26.2364381,25.7504256 C26.2276171,26.0865585 25.9548466,26.355692 25.6186256,26.3600006 Z" id="_Path_2"></path>
                                </g>
                                <path d="M26.3023381,36.8216259 L3.64921258,36.8216259 C3.30985883,36.8171893 3.03583663,36.5431671 3.03140007,36.2038133 L3.03140007,33.1477008 C3.03583663,32.808347 3.30985883,32.5343248 3.64921258,32.5298883 L26.3023381,32.5298883 C26.6435465,32.5298883 26.9201506,32.8064923 26.9201506,33.1477008 L26.9201506,36.2450008 C26.8984347,36.5700272 26.6280883,36.8223505 26.3023381,36.8216259 Z M4.2670251,35.5860008 L25.6845256,35.5860008 L25.6845256,33.7737508 L4.2670251,33.7737508 L4.2670251,35.5860008 Z" id="_Compound_Path_5"></path>
                            </g>
                            <g id="_Group_6" transform="translate(29.655001, 0.000000)">
                                <g id="_Group_7">
                                    <path d="M28.7818257,44.5566385 L1.64750004,44.5566385 C1.30629161,44.5566385 1.02968752,44.2800344 1.02968752,43.938826 L1.02968752,25.7504256 C1.02968752,25.4092172 1.30629161,25.1326131 1.64750004,25.1326131 L28.7818257,25.1326131 C29.1230341,25.1326131 29.3996382,25.4092172 29.3996382,25.7504256 L29.3996382,43.938826 C29.3996382,44.2800344 29.1230341,44.5566385 28.7818257,44.5566385 Z M2.27355005,43.3210135 L28.1640132,43.3210135 L28.1640132,26.3600006 L2.27355005,26.3600006 L2.27355005,43.3210135 Z" id="_Compound_Path_6"></path>
                                    <path d="M23.5098255,12.3562503 L6.92773766,12.3562503 C4.77246457,12.4368952 2.74548282,11.3330601 1.64389094,9.4788214 C0.542299062,7.62458273 0.542299062,5.31653007 1.64389094,3.4622914 C2.74548282,1.60805274 4.77246457,0.504217568 6.92773766,0.584862514 L23.5098255,0.584862514 C25.6650986,0.504217568 27.6920804,1.60805274 28.7936723,3.4622914 C29.8952641,5.31653007 29.8952641,7.62458273 28.7936723,9.4788214 C27.6920804,11.3330601 25.6650986,12.4368952 23.5098255,12.3562503 Z M6.92773766,1.79577504 C5.2197416,1.72387137 3.60979735,2.59410767 2.73436471,4.06245313 C1.85893207,5.53079859 1.85893207,7.36088921 2.73436471,8.82923467 C3.60979735,10.2975801 5.2197416,11.1678164 6.92773766,11.0959128 L23.5098255,11.0959128 C25.2178216,11.1678164 26.8277659,10.2975801 27.7031985,8.82923467 C28.5786311,7.36088921 28.5786311,5.53079859 27.7031985,4.06245313 C26.8277659,2.59410767 25.2178216,1.72387137 23.5098255,1.79577504 L6.92773766,1.79577504 Z" id="_Compound_Path_7"></path>
                                    <path d="M19.679388,26.3600006 L10.7581752,26.3600006 C10.4169668,26.3600006 10.1403627,26.0833965 10.1403627,25.7421881 C10.1403589,23.0657782 12.3076068,20.8948445 14.9840128,20.8903005 L15.4535504,20.8903005 C18.1299564,20.8948445 20.2972043,23.0657782 20.2972005,25.7421881 C20.2972005,26.0833965 20.0205964,26.3600006 19.679388,26.3600006 Z M11.4418878,25.1243756 L19.0286254,25.1243756 C18.7253388,23.3948455 17.2259372,22.1314608 15.4700254,22.1259255 L15.0004878,22.1259255 C13.2357377,22.1241643 11.7262217,23.3936881 11.4254128,25.1326131 L11.4418878,25.1243756 Z" id="_Compound_Path_8"></path>
                                    <path d="M15.2146629,22.134163 C13.2038078,22.134163 11.5736878,20.5040429 11.5736878,18.4931879 C11.5736878,16.4823329 13.2038078,14.8522128 15.2146629,14.8522128 C17.2255179,14.8522128 18.8556379,16.4823329 18.8556379,18.4931879 C18.8556379,20.5040429 17.2255179,22.134163 15.2146629,22.134163 Z M15.2146629,16.0960754 C14.2410412,16.0960811 13.3634466,16.6830211 12.991632,17.5828505 C12.6198173,18.48268 12.8271232,19.5179071 13.5167575,20.2051796 C14.2063919,20.8924522 15.242324,21.0962055 16.1408726,20.7213062 C17.0394213,20.3464068 17.6233472,19.4668039 17.6200129,18.4931879 C17.6154745,17.1679679 16.5398907,16.0960676 15.2146629,16.0960754 Z" id="_Compound_Path_9"></path>
                                    <path d="M4.58005011,26.3600006 C4.24069635,26.355564 3.96667415,26.0815419 3.96223759,25.7421881 L3.96223759,11.1947628 C3.96223759,10.8535543 4.23884168,10.5769502 4.58005011,10.5769502 C4.92125854,10.5769502 5.19786262,10.8535543 5.19786262,11.1947628 L5.19786262,25.7504256 C5.18904158,26.0865585 4.91627109,26.355692 4.58005011,26.3600006 Z" id="_Path_3"></path>
                                    <path d="M25.8575131,26.3600006 C25.5181593,26.355564 25.2441371,26.0815419 25.2397006,25.7421881 L25.2397006,11.1453378 C25.2397006,10.8041293 25.5163047,10.5275252 25.8575131,10.5275252 C26.1987215,10.5275252 26.4753256,10.8041293 26.4753256,11.1453378 L26.4753256,25.7504256 C26.4708187,26.0884128 26.1955303,26.3600307 25.8575131,26.3600006 Z" id="_Path_4"></path>
                                </g>
                                <path d="M25.0172881,8.33635019 L5.42027513,8.33635019 C4.23741924,8.33635019 3.27852508,7.37745603 3.27852508,6.19460014 C3.27852508,5.01174425 4.23741924,4.05285009 5.42027513,4.05285009 L25.0172881,4.05285009 C25.7824617,4.05285006 26.4895113,4.46106531 26.8720981,5.12372509 C27.2546849,5.78638488 27.2546849,6.60281541 26.8720981,7.26547519 C26.4895113,7.92813498 25.7824617,8.33635023 25.0172881,8.33635019 Z M5.42027513,5.28847512 C4.91983609,5.28847512 4.5141501,5.69416111 4.5141501,6.19460014 C4.5141501,6.69503917 4.91983609,7.10072516 5.42027513,7.10072516 L25.0172881,7.10072516 C25.5177271,7.10072516 25.9234131,6.69503917 25.9234131,6.19460014 C25.9234131,5.69416111 25.5177271,5.28847512 25.0172881,5.28847512 L5.42027513,5.28847512 Z" id="_Compound_Path_10"></path>
                            </g>
                        </g>
                    </g>
                </g>
            </g>
        </g>
    </g>
</svg>