<?xml version="1.0" encoding="UTF-8"?>
<svg width="50px" height="50px" viewBox="0 0 50 50" version="1.1" xmlns="http://www.w3.org/2000/svg" xmlns:xlink="http://www.w3.org/1999/xlink">
    <!-- Generator: Sketch 48.2 (47327) - http://www.bohemiancoding.com/sketch -->
    <title>post-twitter</title>
    <desc>Created with Sketch.</desc>
    <defs></defs>
    <g id="touch-icons-&amp;-theme" stroke="none" stroke-width="1" fill="none" fill-rule="evenodd">
        <g id="post-twitter" fill="#F3F3F3">
            <path d="M45,0 L5,0 C2.25,0 0,2.25 0,5 L0,45 C0,47.75 2.25,50 5,50 L45,50 C47.75,50 50,47.75 50,45 L50,5 C50,2.25 47.75,0 45,0 L45,0 Z M39.25,18.25 C39,29.75 31.75,37.75 20.75,38.25 C16.25,38.5 13,37 10,35.25 C13.25,35.75 17.5,34.5 19.75,32.5 C16.5,32.25 14.5,30.5 13.5,27.75 C14.5,28 15.5,27.75 16.25,27.75 C13.25,26.75 11.25,25 11,21 C11.75,21.5 12.75,21.75 13.75,21.75 C11.5,20.5 10,15.75 11.75,12.75 C15,16.25 19,19.25 25.5,19.75 C23.75,12.75 33.25,9 37,13.75 C38.75,13.5 40,12.75 41.25,12.25 C40.75,14 39.75,15 38.5,16 C39.75,15.75 41,15.5 42,15 C41.75,16.25 40.5,17.25 39.25,18.25 L39.25,18.25 Z" id="Shape"></path>
        </g>
    </g>
</svg>